<?xml version="1.0" encoding="UTF-8"?>
<svg width="75px" height="65px" viewBox="0 0 75 65" version="1.1" xmlns="http://www.w3.org/2000/svg" xmlns:xlink="http://www.w3.org/1999/xlink">
    <!-- Generator: Sketch 64 (93537) - https://sketch.com -->
    <title>Path</title>
    <desc>Created with Sketch.</desc>
    <g id="Page-1" stroke="none" stroke-width="1" fill="none" fill-rule="evenodd">
        <g id="Home---Insects-Selection" transform="translate(-91.000000, -112.000000)" fill="#000000" fill-rule="nonzero">
            <g id="noun_Butterfly_442120" transform="translate(91.000000, 112.000000)">
                <g id="Group">
                    <g id="a-link">
                        <g id="a">
                            <path d="M72.8856383,5.90425532 C71.2101064,3.13829787 68.8297872,1.4893617 65.7446809,0.957446809 C63.1914894,0.45212766 60.5053191,0.997340426 57.6861702,2.59308511 C55.9840426,3.52393617 53.5638298,5.22606383 50.4255319,7.69946809 C47.0478723,10.3856383 44.7207447,12.6462766 43.4441489,14.481383 C43.018617,15.1462766 42.5797872,16.0106383 42.1276596,17.0744681 C42.0744681,17.1276596 42.0478723,17.1675532 42.0478723,17.1941489 C41.356383,18.6037234 40.0265957,20.4787234 38.0585106,22.8191489 L39.5744681,18.0718085 L39.8537234,17.5930851 L40.212766,17.393617 L40.8909574,17.393617 C41.0239362,17.393617 41.1037234,17.393617 41.1303191,17.393617 L41.4095745,17.2739362 C41.5691489,17.1941489 41.6755319,17.087766 41.7287234,16.9547872 C41.7553191,16.8484043 41.7553191,16.7553191 41.7287234,16.6755319 C41.5957447,16.5691489 41.4760638,16.5159574 41.3696809,16.5159574 L40.8510638,16.3164894 C40.7712766,16.2898936 40.6781915,16.2898936 40.5718085,16.3164894 L39.5744681,16.5159574 L39.4946809,16.5159574 C39.0691489,16.6755319 38.6835106,17.0744681 38.337766,17.712766 L38.337766,17.7925532 C38.2579787,17.8989362 38.2047872,18.0053191 38.1781915,18.1117021 L38.1781915,18.1914894 C37.912234,18.7765957 37.6861702,19.4148936 37.5,20.106383 C37.287234,19.4148936 37.0478723,18.7765957 36.7819149,18.1914894 L36.7819149,18.1117021 C36.7553191,18.0053191 36.7021277,17.8989362 36.6223404,17.7925532 L36.6223404,17.712766 C36.2765957,17.0744681 35.8909574,16.6755319 35.4654255,16.5159574 L35.3856383,16.5159574 L34.3882979,16.3164894 C34.2819149,16.2898936 34.1888298,16.2898936 34.1090426,16.3164894 L33.5904255,16.5159574 C33.4840426,16.5159574 33.3643617,16.5691489 33.231383,16.6755319 C33.2047872,16.7553191 33.2047872,16.8484043 33.231383,16.9547872 C33.2845745,17.087766 33.3909574,17.1941489 33.5505319,17.2739362 L33.8297872,17.393617 C33.856383,17.393617 33.9361702,17.393617 34.0691489,17.393617 L34.7473404,17.393617 L35.106383,17.5930851 L35.3856383,18.0718085 L36.9015957,22.8191489 C34.9335106,20.4787234 33.6037234,18.6037234 32.912234,17.1941489 C32.912234,17.1675532 32.8856383,17.1276596 32.8324468,17.0744681 C32.3803191,16.0106383 31.9414894,15.1462766 31.5159574,14.481383 C30.2393617,12.6462766 27.912234,10.3856383 24.5345745,7.69946809 C21.3962766,5.22606383 18.9760638,3.52393617 17.2739362,2.59308511 C14.4547872,0.997340426 11.768617,0.45212766 9.21542553,0.957446809 C6.13031915,1.4893617 3.75,3.13829787 2.07446809,5.90425532 L2.15425532,5.90425532 C0.239361702,8.9893617 0.159574468,14.2287234 1.91489362,21.6223404 L1.91489362,21.662234 C3.37765957,28.5239362 5.625,33.337766 8.65691489,36.1037234 L8.57712766,36.1037234 C9.6143617,37.1143617 11.4361702,38.2180851 14.0425532,39.4148936 C11.2234043,42.0478723 9.64095745,44.0957447 9.29521277,45.5585106 C9.00265957,47.0744681 9.00265957,48.7101064 9.29521277,50.4654255 C10.3324468,57.3537234 12.9521277,61.7819149 17.1542553,63.75 C19.9468085,65.106383 22.9521277,64.9734043 26.1702128,63.3510638 C29.6808511,61.6489362 32.4468085,58.4840426 34.4680851,53.856383 L34.5079787,53.8164894 L36.143617,47.8324468 L36.2632979,48.0319149 C36.2632979,48.0585106 36.2632979,48.0851064 36.2632979,48.1117021 L36.5026596,48.6702128 L36.5026596,48.5904255 L36.7420213,49.3882979 C36.768617,49.5212766 36.8351064,49.6010638 36.9414894,49.6276596 C37.0744681,49.6808511 37.2207447,49.7074468 37.3803191,49.7074468 C37.4069149,49.7074468 37.4468085,49.7074468 37.5,49.7074468 C37.5265957,49.7074468 37.5531915,49.7074468 37.5797872,49.7074468 C37.7393617,49.7074468 37.8856383,49.6808511 38.018617,49.6276596 C38.125,49.6010638 38.1914894,49.5212766 38.2180851,49.3882979 L38.4574468,48.5904255 L38.4574468,48.6702128 L38.6968085,48.1117021 C38.6968085,48.0851064 38.6968085,48.0585106 38.6968085,48.0319149 L38.8164894,47.8324468 L40.4521277,53.8164894 L40.4920213,53.856383 C42.5132979,58.4840426 45.2792553,61.6489362 48.7898936,63.3510638 C52.0079787,64.9734043 55.0132979,65.106383 57.8058511,63.75 C62.0079787,61.7819149 64.6276596,57.3537234 65.6648936,50.4654255 C65.9574468,48.7101064 65.9574468,47.0744681 65.6648936,45.5585106 C65.3191489,44.0957447 63.7367021,42.0478723 60.9175532,39.4148936 C63.5239362,38.2180851 65.3457447,37.1143617 66.3829787,36.1037234 L66.3031915,36.1037234 C69.3351064,33.337766 71.5824468,28.5239362 73.0452128,21.662234 L73.0452128,21.6223404 C74.8005319,14.2287234 74.7207447,8.9893617 72.8058511,5.90425532 L72.8856383,5.90425532 Z" id="Path"></path>
                        </g>
                    </g>
                </g>
            </g>
        </g>
    </g>
</svg>