<?xml version="1.0" encoding="UTF-8"?>
<svg width="74px" height="39px" viewBox="0 0 74 39" version="1.1" xmlns="http://www.w3.org/2000/svg" xmlns:xlink="http://www.w3.org/1999/xlink">
    <!-- Generator: Sketch 64 (93537) - https://sketch.com -->
    <title>Shape</title>
    <desc>Created with Sketch.</desc>
    <g id="Page-1" stroke="none" stroke-width="1" fill="none" fill-rule="evenodd">
        <g id="Home---Insects-Selection" transform="translate(-212.000000, -126.000000)" fill="#000000" fill-rule="nonzero">
            <g id="noun_Fish_464853" transform="translate(212.000000, 126.000000)">
                <path d="M73.2954545,35.3198529 L65.3409091,29.4889706 C55.4924242,22.2720588 48.4848485,38.6176471 29.1666667,38.6176471 C11.4109848,38.6176471 0.757575758,23.4669118 0.757575758,19.5 C0.757575758,15.5330882 11.4109848,0.382352941 29.1666667,0.382352941 C48.4848485,0.382352941 55.4924242,16.7279412 65.3409091,9.51102941 L73.2954545,3.68014706 C74.8579545,7.64705882 73.5795455,13.5735294 68.75,19.5 C73.5795455,25.4264706 74.8579545,31.4007353 73.2954545,35.3198529 Z M15.1041667,20.3125 C13.1155303,20.3125 11.5056818,21.9375 11.5056818,23.9448529 C11.5056818,25.9044118 13.1155303,27.5294118 15.1041667,27.5294118 C17.092803,27.5294118 18.7026515,25.9044118 18.7026515,23.9448529 C18.7026515,21.9375 17.092803,20.3125 15.1041667,20.3125 Z" id="Shape" transform="translate(37.341752, 19.500000) scale(-1, 1) rotate(-180.000000) translate(-37.341752, -19.500000) "></path>
            </g>
        </g>
    </g>
</svg>